<?xml version="1.0" encoding="UTF-8" standalone="no"?>
<!-- Created with Inkscape (http://www.inkscape.org/) -->

<svg
   version="1.1"
   id="svg1"
   width="1024"
   height="1536"
   viewBox="0 0 1024 1536"
   xmlns="http://www.w3.org/2000/svg"
   xmlns:svg="http://www.w3.org/2000/svg">
  <defs
     id="defs1" />
  <g
     id="g1">
    <path
       style="display:inline;fill:#ffffff;stroke-width:2.75022;stroke-linecap:round;stroke-miterlimit:40"
       d="m 427.26768,446.19964 c -36.26144,1.09139 -71.66605,10.60956 -104.84457,24.94876 -37.86391,15.24315 -79.32454,32.79945 -100.62338,69.9252 -2.66542,3.5577 -5.38318,8.52321 -0.98952,11.69453 -1.15437,11.04942 -9.68159,20.0979 -14.27485,29.98119 -6.15141,11.78122 -14.33226,22.86878 -18.8299,35.35005 1.49824,2.50674 7.66502,-4.48871 5.80125,0.40824 -8.75645,29.93848 -21.54688,60.3759 -17.39033,92.24262 -0.2091,2.8618 2.14813,3.50798 3.76813,4.1871 5.16388,20.45728 6.76733,42.10376 16.44392,61.28653 8.12397,16.73991 16.28202,34.00489 27.94641,48.54516 3.88256,1.01923 15.13188,26.25846 37.97404,55.67056 28.42987,8.18983 24.92801,7.94944 38.51482,63.43589 0,0 -23.76032,9.3821 -13.36327,95.83963 3.41053,28.3606 -290.558526,340.3291 -225.135599,468.5864 19.838505,38.892 211.325789,27.1775 278.987729,28.1528 35.1054,0.506 168.32701,-2.6698 207.4139,-2.9549 129.52799,-0.9445 172.38747,-11.3203 227.89383,-100.44 43.45004,-69.7623 -10.01836,-285.3254 -26.33457,-294.2795 -24.4757,-13.4319 -164.42803,-37.2885 -172.61853,-69.5717 -6.01192,-23.6962 -32.77018,-56.3061 -14.32098,-76.48274 24.22422,-26.49244 32.70833,-48.68035 36.10964,-73.62607 10.64077,-30.18508 13.08456,-62.6865 8.81451,-94.31694 -4.14639,-41.32632 -13.81242,-84.28683 0.0765,-124.88066 5.30949,-20.18784 16.96113,-39.3955 14.45888,-60.97162 -0.27668,-21.78043 -14.42233,-39.94288 -17.88183,-61.07699 -8.07443,-27.69051 -27.07429,-51.11181 -51.20041,-66.5902 -8.79746,-4.90141 -15.93608,-12.19519 -19.34927,-21.77148 -9.49872,-17.4594 -23.78784,-36.08998 -45.27933,-37.68398 -20.4846,-2.53232 -41.09996,-5.51737 -61.76723,-5.60788 z"
       id="path2" />
    <path
       style="fill:#000000;stroke-width:0.743509"
       d="m 0,1326.0779 v -209.922 l 2.0446509,-0.9545 c 6.3641304,-2.971 47.0606051,-21.048 57.8078561,-25.6777 22.434102,-9.6643 62.051513,-26.8048 77.324973,-33.4546 8.17861,-3.5608 25.24215,-10.8019 37.91898,-16.0914 16.83483,-7.0244 26.6569,-11.6375 36.43196,-17.1111 26.00858,-14.5636 30.7043,-18.9326 67.65936,-62.95304 l 12.63966,-15.05619 -0.23427,-3.8771 c -0.48571,-8.03802 -2.54203,-19.57319 -5.95881,-33.42659 l -3.53126,-14.31756 -5.25083,-0.52681 c -6.93912,-0.69621 -12.32851,-2.79826 -18.76685,-7.31972 -8.24899,-5.79305 -12.54038,-11.61833 -20.78455,-28.21367 -4.90827,-9.88025 -10.53642,-19.59029 -17.66913,-30.48389 -19.58448,-29.91087 -30.34237,-49.66528 -34.01173,-62.45479 -0.99726,-3.4759 -2.69255,-11.45801 -3.76731,-17.73802 -1.42327,-8.31633 -2.46148,-12.28392 -3.82172,-14.60499 -5.93949,-10.135 -8.10448,-20.56703 -8.02364,-38.66214 0.0685,-15.3428 1.37013,-24.1737 6.23194,-42.28179 2.35085,-8.75583 2.83037,-11.55281 2.30616,-13.45134 -0.69567,-2.51951 -0.0443,-8.30998 1.45459,-12.93037 1.45679,-4.49072 7.82624,-16.74696 14.38174,-27.67371 3.39743,-5.66285 7.13657,-12.56807 8.30919,-15.34493 1.17263,-2.77686 3.55712,-7.83534 5.29888,-11.24107 2.76617,-5.40881 3.16683,-6.80323 3.16683,-11.02154 0,-12.33203 10.50357,-31.62702 23.62303,-43.39534 8.45102,-7.58068 35.89418,-27.62849 42.78891,-31.25822 8.47945,-4.46398 26.60186,-11.79003 42.12932,-17.0309 6.3323,-2.1373 12.38422,-4.33637 13.4487,-4.88684 1.06448,-0.55046 13.7835,-4.7481 28.26447,-9.32807 l 26.32905,-8.32723 12.63966,-0.5805 c 6.95181,-0.31927 14.64685,-0.93698 17.10009,-1.3727 2.45325,-0.43572 9.31212,-0.99095 15.24195,-1.23386 9.61389,-0.39382 11.38541,-0.26897 16.35783,1.15281 4.45815,1.27473 8.85627,1.72502 21.93353,2.24559 26.53228,1.05619 34.50335,3.10257 42.88542,11.00978 12.23128,11.53838 24.93235,27.81285 26.65214,34.15065 2.51967,9.28552 3.82628,10.56702 20.95712,20.55428 13.59962,7.92856 23.80307,17.70322 33.42128,32.01678 10.18793,15.16143 17.7028,34.52645 17.71736,45.65585 0.004,3.1482 0.77472,5.71799 3.68818,12.2994 9.51635,21.49708 12.71438,32.81912 12.72778,45.06043 0.0125,11.4436 -3.55675,25.39397 -10.46267,40.89301 -4.00762,8.99436 -7.65379,19.75385 -8.7556,25.83696 l -0.70702,3.90342 h 2.12902 c 1.7131,0 2.12845,0.32683 2.12605,1.6729 -0.004,2.24177 -1.81237,13.26203 -3.75167,22.86291 -2.76304,13.67898 -2.28547,21.05651 4.98151,76.95322 3.33513,25.65349 3.37763,26.24972 2.99478,42.00829 -0.56101,23.09246 -3.85898,43.35256 -10.16646,62.45478 -6.0094,18.19947 -18.92194,46.58664 -26.23359,57.67241 -4.35034,6.59589 -12.60347,16.1696 -17.14489,19.88825 -1.90622,1.5608 -3.46586,3.3272 -3.46586,3.9253 0,1.5437 4.62846,7.2571 15.67713,19.3519 7.8871,8.634 10.28815,10.8006 13.5011,12.1833 2.14937,0.925 15.62547,5.7775 29.94688,10.7834 31.55574,11.0298 49.3705,17.6707 63.18218,23.5529 21.59739,9.198 51.79738,25.0119 71.19103,37.2784 0,0 5.72328,2.1672 7.24922,4.5852 41.13111,65.1753 84.42937,188.5066 96.25784,243.7146 C 872.34706,1424.3172 889.23904,1536 889.23904,1536 H 595.17927 c -147.57511,0 -166.17435,-0.1254 -166.17435,-1.1208 0,-1.5271 3.57417,-17.5389 9.29293,-41.631 5.92473,-24.9597 6.87756,-30.4041 5.59221,-31.9529 -1.13377,-1.3661 -5.48088,-1.5017 -6.53794,-0.2039 -0.41635,0.5112 -4.21979,17.5747 -8.45209,37.919 L 421.20495,1536 h -39.297 -39.297 l 5.39042,-5.7622 c 17.13528,-18.3171 26.1969,-33.0464 34.56213,-56.1793 2.3762,-6.571 2.36103,-8.4822 -0.0761,-9.5927 -5.37093,-2.4471 -16.36344,4.6423 -22.30922,14.388 -3.08493,5.0565 -3.99986,7.5542 -7.81298,21.3291 -3.34678,12.0903 -5.07241,15.8809 -11.05885,24.2927 -2.32821,3.2714 -4.98882,7.2028 -5.91249,8.7362 L 333.71444,1536 h -37.79325 -37.79326 l -2.36858,-6.134 c -3.46814,-8.9815 -7.97291,-22.9638 -10.00087,-31.0415 -2.78761,-11.1035 -3.58936,-18.0055 -3.67061,-31.5991 -0.0898,-15.0138 -0.036,-14.95 -8.25416,-9.7982 -2.86251,1.7945 -10.89242,6.7937 -17.84423,11.1096 -17.62481,10.9418 -19.45815,13.8684 -20.23928,32.3086 -0.36493,8.6151 0.61763,27.216 1.74898,33.1099 L 197.89165,1536 H 98.945829 0 Z m 553.79764,139.1028 c 7.78187,-56.026 11.89882,-124.0667 11.01074,-181.9739 -0.4806,-31.3377 -1.1879,-41.8779 -3.13709,-46.7494 -0.82631,-2.0652 -3.17086,-4.7843 -7.27613,-8.4387 -23.00299,-20.4764 -42.59446,-39.4665 -49.19428,-47.6843 -2.51652,-3.1334 -2.9775,-3.43 -3.46749,-2.2305 -0.92234,2.2578 -5.81262,28.6165 -5.81262,31.3302 0,1.3746 2.79464,10.7568 6.2103,20.8493 3.41566,10.0927 9.34014,28.1834 13.16551,40.2017 6.58383,20.6847 7.17203,22.1536 11.01598,27.5099 6.22898,8.6796 7.88825,12.7601 7.89407,19.4132 0.004,4.4073 -0.37343,6.345 -1.79973,9.243 -2.11104,4.2895 -2.10742,4.3278 2.87926,30.363 3.87321,20.2218 9.19797,52.4498 11.51427,69.6899 1.70245,12.6714 4.88354,41.0312 4.88354,43.5375 0,0.5902 0.28388,1.0731 0.63084,1.0731 0.34696,0 1.01424,-2.7603 1.48283,-6.134 z m -284.03351,-5.948 c 3.76023,-2.9757 15.86795,-18.0272 19.63937,-24.4143 3.10741,-5.2626 2.79165,-7.2697 -0.73395,-4.6652 -6.01653,4.4445 -23.23669,26.7195 -23.23669,30.0575 0,1.9947 0.80433,1.813 4.33127,-0.978 z m 114.97196,-8.5386 c -0.0246,-3.1611 -0.43798,-4.3568 -2.30622,-6.6715 -1.87632,-2.3246 -2.8192,-2.8603 -5.36722,-3.049 -2.18793,-0.1621 -3.21313,0.089 -3.50898,0.8602 -0.87996,2.2931 7.77786,13.4033 10.08312,12.9391 0.8404,-0.1692 1.12164,-1.2127 1.0993,-4.0788 z m 78.80586,-4.1975 c 4.43011,-6.2082 5.75793,-10.0256 5.85014,-16.8184 0.0672,-4.9543 -0.26661,-6.3889 -2.99274,-12.8596 -3.17784,-7.543 -5.83773,-11.6995 -8.63294,-13.4905 -0.89287,-0.5721 -7.9804,-2.4158 -15.75007,-4.0971 -32.75348,-7.0877 -43.36541,-11.168 -52.23154,-20.0831 -5.31459,-5.344 -4.69437,-5.4414 6.75816,-1.0612 8.5431,3.2674 11.54116,4.0172 33.78716,8.4503 10.2502,2.0426 20.56617,4.4357 22.92438,5.318 5.48118,2.0508 9.92723,6.4903 14.79175,14.7699 2.13779,3.6386 4.2854,6.4236 5.06692,6.5708 3.61425,0.6809 7.15645,-6.051 7.17175,-13.6297 0.0126,-6.277 -3.78256,-27.3237 -5.9992,-33.269 -2.03529,-5.459 -6.45618,-10.5084 -10.53538,-12.0334 -1.73045,-0.6469 -12.51449,-3.03 -23.96453,-5.2959 -25.24281,-4.9953 -31.13798,-6.4626 -37.43433,-9.3175 -8.54226,-3.8733 -15.71414,-10.3512 -11.45141,-10.3434 0.71562,0 4.14506,0.489 7.62097,1.0839 3.4759,0.5948 12.34225,1.614 19.703,2.2649 16.55619,1.464 22.64632,2.2926 27.84273,3.7885 9.37562,2.6988 23.88969,11.7881 28.17422,17.6438 11.45369,15.6538 11.19935,15.366 13.57835,15.366 1.77918,0 3.21524,-0.9429 6.61721,-4.3449 3.71826,-3.7182 4.5812,-5.1229 5.98342,-9.7394 1.88511,-6.2063 1.67957,-10.637 -0.748,-16.1249 -2.26721,-5.1254 -7.07394,-11.8903 -12.62428,-17.7672 -2.71387,-2.8736 -6.96687,-7.8947 -9.45111,-11.1582 -5.42996,-7.1331 -9.80113,-11.2091 -13.92746,-12.987 -3.81135,-1.6422 -9.00276,-2.0738 -40.03482,-3.3282 -21.14533,-0.8548 -25.45318,-1.2247 -29.63778,-2.545 -4.29202,-1.3542 -8.20182,-3.9524 -7.30186,-4.8524 0.16967,-0.1696 8.83879,-1.7147 19.26472,-3.4336 10.42594,-1.7188 19.71019,-3.5939 20.63168,-4.1668 0.9215,-0.5729 2.52685,-2.3904 3.56746,-4.0388 l 1.892,-2.9971 3.9511,3.611 c 4.45969,4.076 6.89468,4.9842 16.42385,6.1265 13.6266,1.6334 17.79822,3.8101 24.53581,12.8026 6.51611,8.6969 21.33354,23.4164 28.12273,27.9369 9.35954,6.232 17.78611,7.8138 20.68488,3.8829 2.04822,-2.7774 2.5,-7.9875 1.10786,-12.7762 -2.57604,-8.8613 -20.67133,-35.7858 -29.77277,-44.2997 -7.08902,-6.6314 -19.3888,-14.519 -32.78236,-21.0225 -15.86429,-7.7033 -21.44602,-9.6357 -27.83243,-9.6357 -6.09463,0 -8.41616,0.7696 -22.35445,7.4099 -30.44288,14.5034 -39.00425,17.5863 -71.27753,25.6668 -13.04586,3.2664 -16.51741,4.9619 -21.76508,10.63 -5.63897,6.0908 -9.24583,13.4581 -15.9126,32.5031 -9.19986,26.2812 -22.06915,57.2088 -42.53999,102.2325 -9.9982,21.9901 -11.66937,26.1469 -11.13712,27.7022 1.07066,3.1286 24.65219,-41.5908 40.48455,-76.7738 2.66827,-5.9295 7.84275,-17.8071 11.49884,-26.3946 7.871,-18.4877 12.07875,-25.9677 17.85943,-31.7483 6.12698,-6.127 12.01927,-8.9371 19.62175,-9.3577 8.37245,-0.4632 16.8188,1.9949 13.6288,3.9665 -0.44094,0.2725 -4.45466,0.7891 -8.91936,1.148 -9.38412,0.7544 -12.44761,1.8115 -14.79261,5.1048 -2.29595,3.2244 -10.84201,26.3301 -12.37192,33.4497 -1.43504,6.678 -0.98852,10.6182 1.39226,12.2858 2.44343,1.7115 3.90108,1.4198 9.48556,-1.8978 5.73831,-3.4091 10.82574,-5.1645 14.78742,-5.1022 3.23237,0.051 7.66213,1.5077 8.03168,2.6416 0.14784,0.4536 -2.61098,3.7994 -6.13072,7.4351 -7.4994,7.7464 -10.15492,11.3517 -12.21987,16.5906 -2.79395,7.0883 -1.81448,10.4582 5.29477,18.2166 4.98294,5.4381 11.51489,10.0281 22.82859,16.0419 9.23096,4.9067 15.51283,10.3838 20.00926,17.4456 5.03018,7.9003 10.58155,15.4421 12.74122,17.3098 2.39047,2.0672 5.36123,2.1493 7.12814,0.1968 1.29178,-1.4273 1.28321,-1.6433 -0.24227,-6.1109 -1.03653,-3.0358 -1.32944,-4.8833 -0.85014,-5.3626 0.74662,-0.7466 4.97883,-0.1284 14.85395,2.1699 2.73823,0.6372 10.74167,1.3358 18.46622,1.6118 l 13.63341,0.4872 3.01435,4.1563 c 3.89143,5.3656 7.31356,8.9891 8.48961,8.9891 0.51252,0 2.45499,-2.1344 4.31661,-4.7433 z m -152.48413,-40.834 c 1.89118,-3.6762 2.80643,-6.4549 2.83618,-8.6106 0.0619,-4.4864 -1.14354,-5.3672 -3.05515,-2.2322 -2.07841,3.4086 -5.49581,13.831 -4.97772,15.1812 0.87048,2.2683 2.4961,0.9112 5.19669,-4.3384 z m 396.01962,4.6803 c 4.29377,-0.3837 11.43997,-1.2543 15.88046,-1.9348 l 8.07361,-1.2373 -0.41035,-2.5287 c -0.22568,-1.3907 -2.59722,-6.2946 -5.27007,-10.8975 -5.70863,-9.8307 -10.33641,-20.5664 -11.66913,-27.0704 l -0.95045,-4.6384 -1.69824,1.5954 c -3.42262,3.2154 -10.21658,12.771 -14.86018,20.9007 -5.07625,8.8871 -12.88795,24.5211 -12.88795,25.7934 0,0.9628 13.10333,0.9726 23.7923,0.018 z M 388.48366,1248.3883 c 4.90716,-2.6405 13.10435,-6.789 18.21598,-9.2192 20.46429,-9.729 18.29123,-8.3193 20.71858,-13.4398 1.20078,-2.5331 4.75411,-10.0172 7.89629,-16.6316 6.83909,-14.3964 7.27291,-16.5156 4.52892,-22.1241 -3.92278,-8.0179 -9.00302,-9.89 -15.37852,-5.6671 -4.79518,3.1762 -20.93147,19.9684 -27.82476,28.9556 -10.23086,13.3388 -12.96531,16.438 -14.50343,16.438 -0.80295,0 -1.45991,-0.3217 -1.45991,-0.7148 0,-1.1747 7.14601,-11.2863 20.51272,-29.0256 14.74077,-19.5628 25.59014,-35.0455 38.29389,-54.6479 11.40413,-17.597 15.4603,-23.3363 20.49331,-28.9969 2.18155,-2.4536 3.96795,-4.7529 3.9698,-5.1095 0.006,-1.2122 -12.23931,-13.2528 -18.21264,-17.9079 -3.27145,-2.5495 -16.98919,-12.2675 -30.48389,-21.5957 -39.83658,-27.5368 -60.51397,-43.6634 -78.85508,-61.5001 -17.62284,-17.13826 -30.28928,-33.12738 -36.8306,-46.4921 -2.05153,-4.19153 -3.84367,-7.62097 -3.98254,-7.62097 -0.13885,0 -2.33433,5.6042 -4.87883,12.45378 l -4.62637,12.45379 0.3714,8.92211 c 0.89709,21.55109 11.73755,59.00629 35.51854,122.72129 16.96039,45.4409 33.77376,92.0241 41.60083,115.2593 7.93789,23.5642 9.64832,27.5857 12.12447,28.5063 2.05411,0.7636 2.03389,0.7715 12.79184,-5.0169 z m 94.3869,-3.0377 c 0.55209,-0.8933 13.07699,-71.8891 23.41855,-132.7451 l 8.20684,-48.294 -1.9916,-2.0787 c -2.50288,-2.6125 -3.55544,-2.6204 -4.54909,-0.034 -0.43207,1.1246 -2.3287,12.0821 -4.21473,24.35 -3.38525,22.0198 -4.84887,30.9227 -12.16191,73.9792 -6.04109,35.5675 -13.53186,82.0264 -13.5164,83.8306 0.0116,1.3524 0.43325,1.6729 2.20097,1.6729 1.20266,0 2.37597,-0.3063 2.60737,-0.6807 z m -17.43989,-8.4273 c 0.77062,-1.8275 7.07525,-40.6445 14.09876,-86.8047 2.45772,-16.1527 6.3041,-41.4135 8.54751,-56.1349 5.68787,-37.3245 5.49761,-35.1308 3.09918,-35.7328 -2.4796,-0.6223 -3.89446,0.52 -4.46175,3.6025 -0.24192,1.3144 -2.12597,15.1039 -4.18678,30.6432 -5.78124,43.593 -17.15909,124.6769 -19.74057,140.6807 -0.79073,4.9021 1.05396,7.516 2.64365,3.746 z m 97.9128,-32.3426 c -0.67478,-32.795 -2.82719,-66.9084 -6.48562,-102.7902 -1.42307,-13.9575 -2.8219,-23.4473 -6.71021,-45.5231 -3.3796,-19.1876 -4.51462,-41.3292 -2.65859,-51.8631 0.84365,-4.7881 0.87794,-4.83803 5.31019,-7.73208 9.57072,-6.24922 22.00832,-21.07401 29.39193,-35.03323 2.27583,-4.30262 2.34745,-4.71193 2.01666,-11.5244 -0.26664,-5.49139 -1.2987,-10.65033 -4.63741,-23.18098 -3.81624,-14.3229 -4.68616,-20.19639 -2.66925,-18.02224 0.89621,0.96608 5.63908,12.57048 9.17744,22.4545 1.67094,4.66758 3.36625,8.27651 3.82145,8.13499 1.46913,-0.45674 6.95517,-12.33557 9.97271,-21.59373 6.34476,-19.46647 9.64882,-38.23195 10.30024,-58.50068 0.50997,-15.86737 0.41046,-16.98374 -5.79952,-65.05708 -5.00008,-38.70719 -5.06241,-40.34762 -2.5304,-66.58825 1.38675,-14.3716 5.26266,-28.34899 14.30671,-51.59321 5.74277,-14.75954 7.1721,-21.13831 7.1721,-32.00744 0,-13.23776 -2.76142,-23.58177 -11.01597,-41.26477 -3.57775,-7.6643 -4.80758,-11.17997 -5.20181,-14.87019 -1.23398,-11.55101 -10.93849,-33.97516 -19.87498,-45.92502 -8.75552,-11.70786 -20.86812,-22.61268 -34.80166,-31.3315 -11.64407,-7.2862 -14.73227,-10.7901 -17.44015,-19.78769 -1.05768,-3.51442 -3.58303,-7.44471 -10.73852,-16.71272 -14.53757,-18.82952 -21.16557,-21.90646 -52.86385,-24.54116 -5.52056,-0.45886 -15.80786,-1.48182 -22.86067,-2.27325 -13.98228,-1.56901 -22.50608,-1.77073 -27.69797,-0.65551 -1.84019,0.39528 -8.9535,1.0379 -15.80735,1.42804 -17.17228,0.97752 -32.68803,4.66984 -59.08351,14.06025 -15.41501,5.48402 -49.49979,19.48831 -61.579,25.30073 -29.3652,14.13032 -49.61643,31.70008 -63.04417,54.69646 -1.90522,3.26289 -3.46404,6.35004 -3.46404,6.86032 0,0.51029 0.83645,1.47586 1.85878,2.14571 3.99051,2.61469 2.68073,5.4268 -22.02233,47.28226 -5.4214,9.1857 -10.32033,18.8965 -10.32033,20.45725 0,0.5684 1.36142,0.0706 3.47811,-1.27177 1.91296,-1.21316 3.57371,-2.11015 3.69055,-1.9933 0.31737,0.31737 -2.17487,8.52068 -8.66574,28.52362 -8.79591,27.10641 -10.77695,38.50051 -10.28621,59.16172 0.26298,11.07241 0.91506,13.68884 2.83503,11.37543 0.52345,-0.63073 1.22252,-1.14678 1.55349,-1.14678 0.81588,0 2.58208,8.55231 4.45288,21.56178 2.50304,17.40601 5.7854,28.45701 12.91892,43.4953 4.20572,8.86613 19.00921,35.28454 23.64441,42.19598 2.59546,3.87001 6.11885,7.16094 6.86642,6.41337 0.43655,-0.43655 -7.33415,-25.18421 -8.78269,-27.97061 -0.6891,-1.32553 -3.77324,-5.34048 -6.85365,-8.92211 -8.27718,-9.62397 -11.81043,-18.08949 -14.82035,-35.50893 -2.53328,-14.6609 -1.4807,-20.83662 4.55209,-26.70821 9.81881,-9.55644 22.25122,-8.11291 39.35621,4.56967 11.55363,8.56649 20.3768,19.26067 23.78612,28.83012 3.85558,10.82208 4.55609,6.60436 5.12468,-30.85564 0.70757,-46.61669 1.32385,-53.10511 7.58209,-79.8273 1.42367,-6.07898 2.48637,-11.93412 2.36153,-13.01142 -0.20867,-1.80084 -0.50719,-1.96038 -3.7032,-1.9792 -5.15711,-0.0303 -6.84235,-1.82573 -6.33678,-6.75088 0.44971,-4.38103 4.48995,-17.9532 6.55205,-22.01002 1.74674,-3.43639 1.74273,-3.56129 -0.11445,-3.56129 -2.19873,0 -7.15189,2.64429 -12.00235,6.40754 -2.32382,1.80295 -4.42105,2.96106 -4.66053,2.57359 -0.61639,-0.99736 1.67104,-6.52077 4.33523,-10.46815 3.86824,-5.73136 8.47868,-10.12904 18.36271,-17.51534 5.24884,-3.92243 9.74684,-7.77284 9.99555,-8.55645 1.10985,-3.49683 -1.52504,-3.73304 -11.41178,-1.02305 -3.81435,1.04553 -7.29218,1.78196 -7.72851,1.63652 -1.28807,-0.42936 11.1337,-12.11337 18.38124,-17.28953 12.00341,-8.57279 30.40478,-16.79208 48.05728,-21.46561 12.74638,-3.37463 40.91131,-8.7585 56.85929,-10.86893 6.38566,-0.84503 9.95563,-0.22207 9.95563,1.73727 0,1.75747 -1.60108,2.54727 -10.8188,5.33689 -4.88631,1.47878 -14.40475,4.87366 -21.1521,7.54418 -35.15247,13.91291 -57.1922,29.94866 -66.24141,48.19615 -4.1214,8.31068 -4.32961,10.37016 -1.63057,16.12817 2.14048,4.56636 5.72,9.59448 17.55502,24.65931 6.93889,8.83254 8.3392,11.45547 9.87181,18.4911 2.09507,9.61768 2.09164,23.29581 -0.0122,48.67506 -2.41143,29.08955 -2.41859,27.42758 0.12199,28.2666 4.29078,1.41704 4.86412,0.70939 5.7512,-7.09832 1.00995,-8.8891 5.51449,-16.84766 15.32816,-27.08155 5.24609,-5.47071 5.9712,-6.51098 4.53479,-6.5057 -0.9404,0.004 -2.69694,0.51675 -3.90343,1.14064 -3.41762,1.76733 -2.59311,0.0842 1.93638,-3.95289 5.37945,-4.79463 9.66854,-7.07109 17.71716,-9.40349 7.94285,-2.30175 12.2258,-2.37677 20.53289,-0.35968 6.4555,1.5675 17.87062,2.80552 16.97777,1.84133 -0.27209,-0.29384 -2.43284,-1.13392 -4.80166,-1.86684 -2.36884,-0.73293 -4.44465,-1.74565 -4.61293,-2.25048 -0.23648,-0.70944 1.69806,-0.82113 8.51921,-0.49185 18.14622,0.876 21.88801,1.94464 32.05985,9.15612 4.32553,3.06666 4.64693,3.17945 4.64693,1.63083 0,-1.63265 0.0399,-1.6254 2.14215,0.38863 1.17819,1.12877 2.73461,3.36614 3.45872,4.97192 1.31221,2.90996 2.57773,3.84048 2.57773,1.89536 0,-0.56332 0.45748,-1.40389 1.01662,-1.86794 1.67686,-1.39166 2.50995,0.46752 3.79897,8.47804 0.65536,4.07274 1.6833,8.15545 2.2843,9.07269 1.64658,2.513 4.92825,3.88814 11.16611,4.67903 3.09686,0.39264 5.94175,0.90617 6.32199,1.14117 1.48177,0.91578 0.57616,2.47674 -1.72507,2.97345 -4.3743,0.94417 -7.93467,3.19568 -8.47826,5.36149 -0.72003,2.86887 1.12197,9.25621 6.7338,23.35013 5.53668,13.90521 9.91653,29.64581 9.11852,32.7708 -0.84743,3.3185 -3.42327,3.38758 -8.61932,0.23115 -6.97486,-4.237 -14.11655,-13.60822 -20.61928,-27.05628 -1.8477,-3.82116 -4.58475,-8.31138 -6.08235,-9.97824 -3.56555,-3.9686 -11.0491,-9.46877 -12.88324,-9.46877 -1.13936,0 -0.67588,0.78276 2.18339,3.68748 4.13729,4.20307 3.94032,4.49113 -3.07106,4.49113 -2.99368,0 -5.19339,-0.41102 -6.28257,-1.17392 -0.92181,-0.64566 -2.67808,-1.46131 -3.90283,-1.81257 -2.05534,-0.58946 -2.36824,-0.41462 -4.06321,2.27037 -2.52071,3.99307 -4.5322,5.12281 -11.17505,6.27637 -6.89652,1.19761 -9.14421,0.60116 -11.04658,-2.93132 -0.75282,-1.39791 -1.81273,-2.71202 -2.35534,-2.92024 -1.1716,-0.44959 -4.59179,3.39433 -5.20929,5.85468 -0.51524,2.05289 -2.16459,2.59143 -7.97842,2.60508 -2.37823,0.006 -5.00801,0.37619 -5.84394,0.82357 -1.47478,0.78927 -1.45678,0.85362 0.60651,2.16749 1.16951,0.74475 3.13013,2.19313 4.35692,3.21863 2.05129,1.71471 2.11676,1.90894 0.81474,2.4171 -0.77868,0.3039 -2.95345,0.1221 -4.83281,-0.40401 -10.26994,-2.875 -19.21695,-2.39784 -29.02579,1.548 -3.09025,1.24312 -10.5908,3.56981 -16.66791,5.17042 -6.0771,1.60061 -12.74674,3.83095 -14.8214,4.95634 -3.5058,1.90167 -12.03591,8.99794 -11.48194,9.55191 0.13536,0.13537 4.91472,-1.11828 10.62077,-2.78588 19.35419,-5.65628 25.98117,-7.32086 29.14826,-7.32152 1.73795,-3.6e-4 3.15992,0.28913 3.15992,0.6433 0,0.35418 -2.4257,1.72579 -5.39045,3.048 -11.36823,5.07001 -19.51861,12.08453 -22.92325,19.72859 -1.42445,3.19818 -3.24951,12.37573 -2.75567,13.85725 0.16545,0.49635 3.00807,-2.41848 6.31694,-6.4774 3.30887,-4.05891 7.80609,-9.1214 9.99383,-11.24994 4.3354,-4.2181 15.80928,-11.5021 17.22373,-10.9342 1.13936,0.45746 8.53205,13.52854 9.438,16.68741 0.38206,1.33219 0.48858,6.48833 0.2367,11.45811 -0.31511,6.21741 -0.17747,9.88585 0.44127,11.76065 0.54403,1.64845 3.64915,5.66626 7.86105,10.17169 6.9273,7.41005 14.15599,17.41081 15.00408,20.75786 0.41583,1.64111 0.68695,1.72312 4.1689,1.26123 7.65489,-1.01546 10.65995,-3.72679 32.59723,-29.41106 18.23974,-21.35517 24.84508,-27.05356 34.11099,-29.42738 5.32243,-1.36354 10.96957,-0.54575 15.00355,2.17275 5.15299,3.4726 2.5946,6.12438 -4.63394,4.80308 -5.00542,-0.91493 -9.16798,-0.49443 -12.97132,1.31038 -6.27392,2.97717 -10.78104,10.12413 -9.64539,15.29473 0.6976,3.1761 5.29871,6.20324 13.28858,8.74274 9.76314,3.10312 22.59194,6.6585 28.44305,7.88271 6.02355,1.26029 7.50351,0.64921 9.9255,-4.09829 0.83143,-1.62975 1.76339,-2.96317 2.07102,-2.96317 0.30763,0 1.19633,1.18285 1.97489,2.62855 2.09533,3.8908 7.27773,8.35035 10.38024,8.93238 5.80577,1.08917 7.45381,0.15214 18.04388,-10.25919 5.44492,-5.35303 10.10003,-9.53262 10.34467,-9.28798 0.98191,0.98192 -0.73025,5.24063 -3.73298,9.28518 -5.59042,7.53005 -37.19416,36.64988 -42.68064,39.32612 -4.26935,2.08255 -13.12401,2.2471 -19.25147,0.35776 -6.66867,-2.05622 -11.21653,-4.78802 -18.51049,-11.11884 -7.77364,-6.74715 -14.74544,-15.43165 -17.85641,-22.24301 -3.8454,-8.41939 -4.61901,-7.99505 -18.3839,10.08405 -4.1449,5.444 -8.45305,11.09351 -9.57368,12.55447 -2.7937,3.64213 -3.70249,7.2645 -2.7293,10.87866 1.42148,5.27898 2.94748,6.01679 15.32148,7.4078 6.0539,0.68054 16.19307,1.59202 22.53149,2.0255 6.33842,0.43348 17.71751,1.27915 25.28687,1.87926 18.78341,1.48919 33.92672,1.47292 40.51371,-0.0436 2.86251,-0.65901 9.72139,-2.53423 15.24194,-4.16716 17.3295,-5.12589 22.51218,-4.74485 32.69103,2.40347 6.28106,4.41102 7.63287,6.58952 5.5318,8.91472 -1.17883,1.30459 -1.99388,1.50261 -4.81373,1.16955 l -3.39461,-0.40095 -5.15575,6.76835 c -7.83983,10.29198 -14.25025,16.57204 -19.25466,18.86313 -4.08745,1.8713 -4.50112,1.92121 -8.32345,1.00424 -3.80739,-0.91337 -4.24927,-0.86231 -8.27241,0.95601 -3.89439,1.76012 -5.58827,1.98822 -20.23561,2.72492 -8.792,0.44221 -20.16769,1.50165 -25.27932,2.35433 -15.12865,2.52362 -22.53197,1.23496 -32.89211,-5.72538 -7.75564,-5.21052 -9.31479,-6.01814 -13.37521,-6.9281 -4.37471,-0.98039 -8.11674,0.0999 -10.61009,3.0631 -1.6939,2.01309 -2.09452,2.18015 -3.01667,1.25801 -0.58485,-0.58485 -1.40916,-3.06122 -1.83181,-5.50304 -1.23234,-7.11977 -1.43314,-7.74618 -2.97834,-9.29139 -1.01926,-1.01924 -2.47358,-1.46809 -4.75685,-1.46809 -3.8613,0 -6.00359,-1.54064 -10.81597,-7.77838 -3.20291,-4.15155 -5.05407,-5.00204 -6.66432,-3.06182 -0.67596,0.81448 -0.59868,3.21001 0.33795,10.47582 0.66787,5.18093 1.02935,9.60483 0.80328,9.83089 -0.90906,0.90906 -2.93833,-1.89228 -6.14349,-8.48085 -3.31548,-6.81536 -4.45388,-7.92194 -6.10416,-5.93348 -2.66564,3.21191 -1.58478,10.796 3.75016,26.3137 5.5135,16.03709 9.95986,26.08909 13.57623,30.69215 1.78294,2.2694 5.51198,8.46463 8.28676,13.76717 12.25871,23.42619 15.37045,26.32018 44.31644,41.2153 20.28527,10.43854 27.89286,12.93634 31.21204,10.24814 0.63114,-0.5112 2.23103,-4.1079 3.55532,-7.99275 4.4967,-13.1912 9.82421,-20.72586 18.02415,-25.49144 10.43322,-6.0635 25.05647,-5.22904 36.04366,2.05676 9.53927,6.32568 14.11362,19.08979 12.20433,34.05463 -1.36462,10.6956 -5.72201,31.4269 -8.2008,39.0171 -3.16089,9.6789 -5.57317,14.0921 -10.12295,18.52 -2.67482,2.6031 -4.17443,4.7626 -4.64693,6.6916 -1.07899,4.4051 -10.54597,59.8807 -10.54525,61.7942 3.5e-4,0.9327 3.13497,6.4533 6.96585,12.2679 9.45326,14.3485 23.53788,37.9028 30.86355,51.6144 3.32105,6.2161 6.03828,11.4394 6.03828,11.6075 0,0.878 8.95922,19.0988 9.39096,19.0988 0.27964,0 0.29675,-10.2883 0.038,-22.8629 z M 441.52873,951.30891 c -11.3145,-4.04164 -23.19948,-17.10682 -26.36042,-28.97807 -1.15135,-4.32401 -1.33627,-7.9047 -0.40823,-7.9047 0.34394,0 1.56947,1.75654 2.72339,3.90343 3.30563,6.15012 7.3982,10.57991 18.19714,19.69655 9.88211,8.34264 13.23463,12.03701 12.2982,13.5522 -0.63175,1.0222 -3.12587,0.91802 -6.45008,-0.26941 z m 58.66722,-11.2852 c -4.16165,-2.25774 -1.19046,-5.53222 4.99825,-5.50847 4.37527,0.0168 10.84692,1.54842 10.98749,2.60039 0.0538,0.40208 -1.01939,1.48386 -2.38472,2.40395 -2.98259,2.00997 -10.32375,2.28207 -13.60102,0.50413 z m -44.26337,-0.40259 c -10.06573,-1.67594 -16.9588,-8.41325 -18.39304,-17.97742 -0.47871,-3.19227 -0.39237,-3.50001 0.98187,-3.50001 0.8287,0 4.18143,1.89962 7.4505,4.22138 3.26906,2.32176 9.00833,5.92051 12.75394,7.99721 6.83319,3.78859 9.58503,6.59391 8.70859,8.87788 -0.52385,1.36511 -4.75029,1.5051 -11.50186,0.38096 z m 116.28951,-75.125 c -0.56559,-9.31218 -2.34787,-15.60915 -7.07503,-24.99676 -3.72007,-7.38763 -12.07445,-20.01396 -17.32928,-26.1905 -2.8193,-3.3138 -4.27954,-5.75671 -4.64585,-7.77227 -0.80574,-4.43347 -2.92813,-8.04309 -7.77694,-13.22648 -5.19099,-5.54919 -5.88577,-7.51369 -2.7829,-7.86871 6.24085,-0.71407 25.34608,18.07237 41.90342,41.20422 10.11185,14.12705 15.24061,26.31711 15.29916,36.36311 0.0605,10.37684 -2.3329,12.45635 -4.27734,3.71643 -1.22007,-5.48393 -2.52414,-7.29705 -4.69049,-6.52142 -1.12092,0.40133 -3.45198,4.84657 -4.20015,8.00955 -0.60328,2.55044 -2.39738,5.57633 -3.3063,5.57633 -0.33802,0 -0.84126,-3.73207 -1.1183,-8.2935 z M 390.34244,767.44076 c -1.02233,-0.1787 -5.73988,-1.64581 -10.48344,-3.26025 -4.74563,-1.61514 -11.09925,-3.19529 -14.12668,-3.5133 l -5.50202,-0.57797 3.33095,-1.74591 c 3.08413,-1.61654 3.91051,-1.71273 11.15264,-1.29815 4.6769,0.26773 9.76478,1.06624 12.65451,1.98604 8.3975,2.67293 13.02922,2.68123 27.03656,0.0484 6.89597,-1.29616 12.68673,-2.20805 12.86835,-2.02643 0.5457,0.54571 -3.87051,3.39531 -8.29309,5.35118 -7.96122,3.52083 -22.58998,6.09351 -28.63778,5.03636 z m 149.4984,-14.75108 c -2.21996,-0.62129 -6.65559,-2.52525 -9.85695,-4.23101 -5.94264,-3.16637 -14.73188,-9.74196 -14.73188,-11.02152 0,-1.87598 6.5729,-0.44005 17.62342,3.85003 11.16423,4.33425 12.17844,4.58818 20.50369,5.13364 8.80262,0.57674 12.43153,1.73092 12.43153,3.95389 0,2.7739 -18.45261,4.41877 -25.96981,2.31497 z m 44.55755,-12.31341 c -3.06698,-1.60562 -5.57632,-3.33439 -5.57632,-3.84173 0,-1.38845 4.43617,-1.53746 6.95737,-0.2337 3.11001,1.60825 6.94288,7.29876 4.7529,7.05644 -0.3067,-0.0339 -3.06698,-1.37539 -6.13395,-2.98101 z m -72.86392,-12.16713 c -1.21117,-0.67144 -3.06137,-0.88852 -5.31048,-0.62307 -3.86154,0.45577 -3.87233,0.44258 -4.75342,-5.81104 -0.45652,-3.24017 -0.32646,-3.5924 2.37405,-6.42973 l 2.85704,-3.00177 -3.54802,-0.34016 c -1.95141,-0.18708 -3.74928,-0.54142 -3.99528,-0.78741 -1.09293,-1.09294 0.68024,-2.63552 4.80085,-4.17652 3.68116,-1.37666 5.59779,-2.83286 11.01507,-8.36887 5.89514,-6.02434 6.42884,-6.79699 5.27687,-7.63932 -1.81093,-1.32419 -1.6089,-2.62638 1.02424,-6.6017 4.62694,-6.98541 21.4289,-18.34234 32.63911,-22.06173 11.46301,-3.80326 19.85482,-2.53881 26.36642,3.97279 3.78902,3.78902 8.89889,12.7602 8.0502,14.1334 -0.60805,0.98386 -7.31807,0.0847 -12.48309,-1.67284 -5.77314,-1.96442 -12.56307,-2.00134 -17.57867,-0.0956 -11.4015,4.33223 -40.6316,24.46182 -42.69622,29.40316 -0.58555,1.40142 -1.06464,2.89785 -1.06464,3.3254 0,1.46177 5.30486,-1.41385 12.16968,-6.59687 3.7344,-2.8195 7.94573,-5.70805 9.3585,-6.41898 6.16664,-3.10315 19.9687,-1.71885 29.45461,2.95421 8.37986,4.12818 11.69917,7.55152 15.96815,16.46868 2.02535,4.2306 3.68246,7.8359 3.68246,8.01179 0,0.66595 -4.78875,1.95228 -7.26798,1.95228 -1.42177,0 -5.5945,-1.20407 -9.27273,-2.6757 l -6.68772,-2.67571 -2.07309,1.53271 c -3.05086,2.2556 -7.72916,3.17766 -14.84799,2.92645 l -6.31983,-0.22301 -0.77388,-4.03747 c -0.42563,-2.22061 -1.14252,-4.16034 -1.59307,-4.31053 -0.45056,-0.15019 -3.6154,1.54108 -7.03297,3.75837 -11.20252,7.26808 -13.94395,8.21219 -17.73817,6.10875 z m 62.67297,-9.04848 c 1.6166,-1.6166 -7.73494,-11.28029 -13.41491,-13.86269 -7.36891,-3.35027 -16.08178,-1.74026 -21.37646,3.95007 l -2.23053,2.39721 3.34579,-0.48319 c 1.84019,-0.26575 6.37392,-0.68987 10.07496,-0.94249 7.85164,-0.53591 10.38013,0.30613 17.80665,5.93002 4.71695,3.57202 5.0569,3.74867 5.7945,3.01107 z m -20.68141,-2.6268 c 1.35963,-1.24525 -0.72833,-3.22701 -3.39992,-3.22701 -2.57287,0 -3.53386,1.37338 -2.62261,3.74804 0.43436,1.13194 4.61239,0.77048 6.02253,-0.52103 z m -105.66395,-177.243 c -4.5545,-1.80791 -13.22759,-4.55285 -19.2735,-6.09987 -6.04591,-1.54701 -11.13007,-3.22528 -11.29814,-3.7295 -0.51604,-1.54809 13.41827,-1.18077 20.10759,0.53008 9.86131,2.52209 22.09078,8.94522 22.09078,11.60244 0,1.75441 -2.80435,1.1989 -11.62673,-2.30315 z M 383.9061,965.50904 c -0.15031,-4.39678 -6.27634,-22.39721 -16.24624,-47.73711 -4.3441,-11.04111 -9.39751,-24.0897 -11.22981,-28.99686 -5.71899,-15.31623 -8.53342,-21.67451 -10.82407,-24.45347 -5.18456,-6.28977 -6.58981,-2.45008 -6.59868,18.03015 -0.0129,29.75463 1.24891,34.56488 12.82927,48.90864 2.68547,3.32631 8.39133,10.6858 12.67969,16.35443 10.15212,13.41978 17.54557,21.9931 18.63523,21.60912 0.51915,-0.18295 0.82404,-1.68392 0.75461,-3.7149 z m 87.07203,-62.96572 c 1.05629,-0.40159 2.28116,-1.65626 2.72196,-2.78816 l 0.80145,-2.05798 1.13468,1.6729 c 1.02387,1.50952 1.73781,1.67289 7.31071,1.67289 4.66891,0 6.46621,-0.29017 7.36514,-1.1891 0.82543,-0.82543 1.467,-0.96049 2.09776,-0.44164 0.49976,0.4111 2.96398,1.14997 5.47603,1.64194 4.28263,0.83872 4.70446,0.79312 6.76639,-0.73132 1.7466,-1.29133 3.40732,-1.66746 8.07228,-1.82825 6.57867,-0.22675 9.96116,-1.39476 13.79988,-4.7652 1.78035,-1.56317 2.85625,-2.05268 3.37387,-1.53506 0.41799,0.41799 2.36224,0.6561 4.32056,0.52913 4.90516,-0.31803 6.53558,-2.54943 6.92723,-9.4806 0.49906,-8.83218 -1.88736,-12.74717 -7.8033,-12.80146 -1.56685,-0.0144 -6.86376,0.98219 -11.77093,2.21462 -4.90716,1.23242 -11.76603,2.80904 -15.24194,3.5036 -3.4759,0.69456 -8.88283,2.16934 -12.01539,3.27729 -5.18368,1.83339 -5.87829,1.91869 -7.72889,0.94907 -1.11833,-0.58596 -3.98627,-1.24246 -6.37319,-1.4589 -4.68635,-0.42494 -6.59694,0.40791 -6.59694,2.87567 0,1.89313 -0.89104,1.75447 -2.97404,-0.46279 -1.9326,-2.05716 -5.0673,-2.40486 -9.80874,-1.08797 -3.40288,0.94511 -3.83829,2.21719 -2.8584,8.35103 2.01248,12.59762 5.81466,16.67361 13.00382,13.94029 z m -15.53322,-2.02372 c 1.05767,-1.05766 1.19453,-2.19342 0.82879,-6.87746 -0.75273,-9.64014 -2.19072,-11.93041 -7.49073,-11.93041 -3.47379,0 -4.47946,1.88039 -3.94289,7.37241 0.42128,4.3119 3.45833,11.52612 5.13546,12.19876 1.9596,0.78592 4.23814,0.46793 5.46937,-0.7633 z m -13.89578,-4.93793 c 0.45658,-0.55014 1.03768,-2.03798 1.29134,-3.30631 0.94982,-4.74911 -5.02782,-10.42216 -8.38469,-7.95745 -1.31948,0.9688 -1.31918,1.12205 0.01,4.95895 0.75413,2.1776 1.84923,4.71207 2.43354,5.63216 1.18841,1.87134 3.39097,2.18994 4.65021,0.67265 z M 405.94547,878.7434 c 0.75822,-0.40579 1.76592,-1.9114 2.23931,-3.34579 1.09949,-3.33148 0.0476,-6.77827 -2.94312,-9.64352 l -2.16713,-2.07624 -2.23561,1.76772 c -1.8465,1.46005 -2.24276,2.32414 -2.27674,4.96456 -0.0451,3.51001 1.46561,7.0886 3.49051,8.268 1.6543,0.96354 2.19733,0.97264 3.89278,0.0653 z m -133.77646,-3.91762 c 6.02621,-4.06106 9.72656,-11.70397 11.57978,-23.91745 1.21586,-8.01313 1.04779,-14.08795 -0.42948,-15.52383 -1.26404,-1.2286 -5.00242,3.17495 -9.50444,11.19555 -3.66597,6.53113 -8.83468,12.08289 -11.24924,12.08289 -1.59243,0 -2.44049,-1.77165 -4.19273,-8.75871 -2.19378,-8.74774 -3.91809,-10.3172 -7.01276,-6.38297 -1.89198,2.40526 -1.92647,4.54975 -0.16578,10.30887 3.91234,12.79706 11.32077,22.50213 17.28846,22.64793 0.65515,0.016 2.31394,-0.72752 3.68619,-1.65228 z m -4.97295,-42.98684 c 4.43133,-3.48569 4.29823,-6.83826 -0.3265,-8.22386 -1.85221,-0.55494 -4.39637,-2.36451 -6.89799,-4.90629 -3.9144,-3.97724 -4.03624,-4.03579 -9.84609,-4.73089 -3.23545,-0.3871 -6.80427,-1.0718 -7.93071,-1.52155 -4.67533,-1.86674 -9.04233,-9.17583 -11.70679,-19.59373 -2.90926,-11.37512 -1.54981,-18.38828 4.55524,-23.49972 6.31695,-5.28885 7.30658,-8.89326 3.43742,-12.51963 -3.75469,-3.51908 -5.44817,-2.93271 -9.3643,3.24238 -2.28585,3.60441 -2.30413,3.61493 -3.01767,1.73818 -0.39484,-1.03852 -1.22824,-5.80489 -1.85198,-10.59196 -0.62375,-4.78707 -1.52309,-9.17247 -1.99853,-9.74535 -0.92717,-1.11716 -5.55207,-1.44139 -6.17535,-0.4329 -0.20689,0.33476 0.26936,3.09504 1.05834,6.13395 0.78899,3.0389 2.8014,13.72247 4.47203,23.74126 2.19933,13.18947 3.84974,20.64748 5.98106,27.0277 4.60276,13.77865 4.65487,13.84291 17.30363,21.34245 4.44407,2.63493 10.13192,6.66214 12.63966,8.94936 4.06517,3.7077 5.74394,4.88362 7.24742,5.07658 0.25156,0.0323 1.34105,-0.63641 2.42111,-1.48598 z m 3.7858,-25.03578 c -0.1719,-2.76028 -0.47243,-8.90677 -0.66784,-13.65887 -0.37663,-9.1594 -1.74272,-14.24215 -4.17818,-15.54557 -1.86849,-0.99999 -2.18852,-0.91571 -2.19995,0.57932 -0.005,0.71563 -1.00474,4.14507 -2.22058,7.62098 -2.89738,8.28309 -2.98565,13.80638 -0.3066,19.18254 2.25736,4.52994 4.89141,6.84028 7.79871,6.84028 h 2.087 z m 73.83005,-53.6637 10.60445,-1.42083 6.50819,-4.10654 c 7.62451,-4.8109 12.67248,-9.00401 11.85036,-9.84352 -0.32014,-0.32692 -2.4949,-0.17561 -4.83281,0.33621 -2.33791,0.51184 -6.4255,1.40924 -9.08355,1.99423 -2.65805,0.58499 -7.92262,1.06943 -11.69906,1.07653 -6.66137,0.0125 -7.23819,-0.12923 -19.33125,-4.75052 -6.85574,-2.61988 -14.43021,-5.64519 -16.83215,-6.72288 -2.40193,-1.0777 -4.65678,-1.86173 -5.01077,-1.74228 -1.27394,0.42987 7.42406,9.22296 11.10495,11.22634 3.93645,2.14249 22.91077,6.89057 30.85385,7.72079 2.50871,0.26221 3.94584,0.69059 3.36935,1.00434 -1.74022,0.94709 -13.55928,2.22958 -17.02145,1.847 -1.82329,-0.20147 -6.74069,-0.72514 -10.92755,-1.16371 -4.19248,-0.43915 -10.038,-1.63752 -13.01141,-2.66743 -4.92764,-1.70679 -16.92334,-3.32548 -16.92334,-2.28362 0,0.99566 8.57514,6.47832 11.78039,7.53199 10.6019,3.48518 22.66645,4.09898 38.6018,1.9639 z m 55.07043,-25.29629 c 4.48432,-2.25118 12.86258,-4.27869 20.26365,-4.90374 3.44116,-0.29062 6.49298,-0.66372 6.78181,-0.82912 1.1475,-0.6571 -0.40095,-2.36929 -3.33858,-3.6916 -4.38047,-1.97178 -12.87491,-1.82199 -18.74835,0.33062 -8.6918,3.18554 -15.98545,9.98738 -15.98545,14.90756 0,1.51698 0.27434,1.42682 3.90342,-1.28277 2.14688,-1.60293 5.35247,-3.64186 7.1235,-4.53095 z m 16.85468,1.82089 c 0,-0.99778 -0.57862,-1.56889 -1.75865,-1.73585 -2.14344,-0.30327 -3.43507,0.83818 -2.80536,2.47917 0.70163,1.82842 4.56401,1.19936 4.56401,-0.74332 z m -51.65135,-1.20987 c 1.53855,-0.46096 4.92316,-2.48399 7.52136,-4.49563 11.39335,-8.82124 15.96204,-11.02654 26.70486,-12.89046 7.50413,-1.30198 20.23559,-1.52339 24.76388,-0.43066 l 2.87769,0.69442 -2.41801,-2.49475 c -1.32991,-1.37212 -4.13048,-3.26035 -6.22348,-4.19607 -3.30821,-1.479 -4.97136,-1.69503 -12.72759,-1.65325 -8.18994,0.0441 -9.44074,0.24502 -15.24194,2.44799 -9.86058,3.7445 -11.04652,3.81122 -8.52672,0.47975 1.77475,-2.34643 1.31293,-2.8704 -2.06829,-2.34659 -5.14624,0.79725 -10.57857,3.9001 -14.67475,8.38198 -6.00688,6.57248 -8.86878,13.06477 -6.96025,15.78956 1.22827,1.75361 2.92331,1.9271 6.97324,0.71371 z"
       id="path1" />
  </g>
</svg>
